<svg width="194" height="112" viewBox="0 0 194 112" fill="none" xmlns="http://www.w3.org/2000/svg">
<rect width="194" height="112" fill="black"/>
<path d="M31.3636 51.4943C29.6932 51.4943 28.2045 51.2045 26.8977 50.625C25.5909 50.0341 24.5568 49.1648 23.7955 48.017C23.0455 46.858 22.6705 45.4148 22.6705 43.6875C22.6705 42.233 22.9375 41.0114 23.4716 40.0227C24.0057 39.0341 24.733 38.2386 25.6534 37.6364C26.5739 37.0341 27.6193 36.5795 28.7898 36.2727C29.9716 35.9659 31.2102 35.75 32.5057 35.625C34.0284 35.4659 35.2557 35.3182 36.1875 35.1818C37.1193 35.0341 37.7955 34.8182 38.2159 34.5341C38.6364 34.25 38.8466 33.8295 38.8466 33.2727V33.1705C38.8466 32.0909 38.5057 31.2557 37.8239 30.6648C37.1534 30.0739 36.1989 29.7784 34.9602 29.7784C33.6534 29.7784 32.6136 30.0682 31.8409 30.6477C31.0682 31.2159 30.5568 31.9318 30.3068 32.7955L23.5909 32.25C23.9318 30.6591 24.6023 29.2841 25.6023 28.125C26.6023 26.9545 27.892 26.0568 29.4716 25.4318C31.0625 24.7955 32.9034 24.4773 34.9943 24.4773C36.4489 24.4773 37.8409 24.6477 39.1705 24.9886C40.5114 25.3295 41.6989 25.858 42.733 26.5739C43.7784 27.2898 44.6023 28.2102 45.2045 29.3352C45.8068 30.4489 46.108 31.7841 46.108 33.3409V51H39.2216V47.3693H39.017C38.5966 48.1875 38.0341 48.9091 37.3295 49.5341C36.625 50.1477 35.7784 50.6307 34.7898 50.983C33.8011 51.3239 32.6591 51.4943 31.3636 51.4943ZM33.4432 46.483C34.5114 46.483 35.4545 46.2727 36.2727 45.8523C37.0909 45.4205 37.733 44.8409 38.1989 44.1136C38.6648 43.3864 38.8977 42.5625 38.8977 41.642V38.8636C38.6705 39.0114 38.358 39.1477 37.9602 39.2727C37.5739 39.3864 37.1364 39.4943 36.6477 39.5966C36.1591 39.6875 35.6705 39.7727 35.1818 39.8523C34.6932 39.9205 34.25 39.983 33.8523 40.0398C33 40.1648 32.2557 40.3636 31.6193 40.6364C30.983 40.9091 30.4886 41.2784 30.1364 41.7443C29.7841 42.1989 29.608 42.767 29.608 43.4489C29.608 44.4375 29.9659 45.1932 30.6818 45.7159C31.4091 46.2273 32.3295 46.483 33.4432 46.483ZM55.3674 51.4943C53.6969 51.4943 52.2083 51.2045 50.9015 50.625C49.5947 50.0341 48.5606 49.1648 47.7992 48.017C47.0492 46.858 46.6742 45.4148 46.6742 43.6875C46.6742 42.233 46.9412 41.0114 47.4753 40.0227C48.0094 39.0341 48.7367 38.2386 49.6572 37.6364C50.5776 37.0341 51.6231 36.5795 52.7935 36.2727C53.9753 35.9659 55.214 35.75 56.5094 35.625C58.0322 35.4659 59.2594 35.3182 60.1912 35.1818C61.1231 35.0341 61.7992 34.8182 62.2197 34.5341C62.6401 34.25 62.8503 33.8295 62.8503 33.2727V33.1705C62.8503 32.0909 62.5094 31.2557 61.8276 30.6648C61.1572 30.0739 60.2026 29.7784 58.964 29.7784C57.6572 29.7784 56.6174 30.0682 55.8447 30.6477C55.0719 31.2159 54.5606 31.9318 54.3106 32.7955L47.5947 32.25C47.9356 30.6591 48.606 29.2841 49.606 28.125C50.606 26.9545 51.8958 26.0568 53.4753 25.4318C55.0663 24.7955 56.9072 24.4773 58.9981 24.4773C60.4526 24.4773 61.8447 24.6477 63.1742 24.9886C64.5151 25.3295 65.7026 25.858 66.7367 26.5739C67.7822 27.2898 68.606 28.2102 69.2083 29.3352C69.8106 30.4489 70.1117 31.7841 70.1117 33.3409V51H63.2253V47.3693H63.0208C62.6003 48.1875 62.0378 48.9091 61.3333 49.5341C60.6287 50.1477 59.7822 50.6307 58.7935 50.983C57.8049 51.3239 56.6628 51.4943 55.3674 51.4943ZM57.4469 46.483C58.5151 46.483 59.4583 46.2727 60.2765 45.8523C61.0947 45.4205 61.7367 44.8409 62.2026 44.1136C62.6685 43.3864 62.9015 42.5625 62.9015 41.642V38.8636C62.6742 39.0114 62.3617 39.1477 61.964 39.2727C61.5776 39.3864 61.1401 39.4943 60.6515 39.5966C60.1628 39.6875 59.6742 39.7727 59.1856 39.8523C58.6969 39.9205 58.2537 39.983 57.856 40.0398C57.0038 40.1648 56.2594 40.3636 55.6231 40.6364C54.9867 40.9091 54.4924 41.2784 54.1401 41.7443C53.7878 42.1989 53.6117 42.767 53.6117 43.4489C53.6117 44.4375 53.9697 45.1932 54.6856 45.7159C55.4128 46.2273 56.3333 46.483 57.4469 46.483ZM75.4507 60.8182C74.5302 60.8182 73.6666 60.7443 72.8598 60.5966C72.0643 60.4602 71.4052 60.2841 70.8825 60.0682L72.5189 54.6477C73.3711 54.9091 74.1382 55.0511 74.82 55.0739C75.5132 55.0966 76.1098 54.9375 76.6098 54.5966C77.1211 54.2557 77.5359 53.6761 77.8541 52.858L78.2802 51.75L68.8882 24.8182H76.5245L81.945 44.0455H82.2177L87.6893 24.8182H95.3768L85.2007 53.8295C84.712 55.2386 84.0473 56.4659 83.2064 57.5114C82.3768 58.5682 81.3257 59.3807 80.053 59.9489C78.7802 60.5284 77.2461 60.8182 75.4507 60.8182ZM112.043 39.8523V24.8182H119.304V51H112.332V46.2443H112.06C111.469 47.7784 110.486 49.0114 109.111 49.9432C107.747 50.875 106.082 51.3409 104.116 51.3409C102.366 51.3409 100.827 50.9432 99.497 50.1477C98.1675 49.3523 97.1277 48.2216 96.3777 46.7557C95.6391 45.2898 95.2641 43.5341 95.2527 41.4886V24.8182H102.514V40.1932C102.525 41.7386 102.94 42.9602 103.758 43.858C104.577 44.7557 105.673 45.2045 107.048 45.2045C107.923 45.2045 108.741 45.0057 109.503 44.608C110.264 44.1989 110.878 43.5966 111.344 42.8011C111.821 42.0057 112.054 41.0227 112.043 39.8523ZM143.056 32.2841L136.408 32.6932C136.295 32.125 136.051 31.6136 135.676 31.1591C135.301 30.6932 134.806 30.3239 134.193 30.0511C133.59 29.767 132.869 29.625 132.028 29.625C130.903 29.625 129.954 29.8636 129.181 30.3409C128.408 30.8068 128.022 31.4318 128.022 32.2159C128.022 32.8409 128.272 33.3693 128.772 33.8011C129.272 34.233 130.13 34.5795 131.346 34.8409L136.085 35.7955C138.63 36.3182 140.528 37.1591 141.778 38.3182C143.028 39.4773 143.653 41 143.653 42.8864C143.653 44.6023 143.147 46.108 142.136 47.4034C141.136 48.6989 139.761 49.7102 138.011 50.4375C136.272 51.1534 134.266 51.5114 131.994 51.5114C128.528 51.5114 125.766 50.7898 123.71 49.3466C121.664 47.892 120.465 45.9148 120.113 43.4148L127.255 43.0398C127.471 44.0966 127.994 44.9034 128.823 45.4602C129.653 46.0057 130.715 46.2784 132.011 46.2784C133.283 46.2784 134.306 46.0341 135.079 45.5455C135.863 45.0455 136.261 44.4034 136.272 43.6193C136.261 42.9602 135.982 42.4205 135.437 42C134.891 41.5682 134.051 41.2386 132.914 41.0114L128.38 40.108C125.823 39.5966 123.92 38.7102 122.67 37.4489C121.431 36.1875 120.812 34.5795 120.812 32.625C120.812 30.9432 121.266 29.4943 122.176 28.2784C123.096 27.0625 124.386 26.125 126.045 25.4659C127.715 24.8068 129.67 24.4773 131.908 24.4773C135.215 24.4773 137.818 25.1761 139.715 26.5739C141.624 27.9716 142.738 29.875 143.056 32.2841ZM151.647 35.8636V51H144.385V16.0909H151.442V29.4375H151.749C152.34 27.892 153.294 26.6818 154.613 25.8068C155.931 24.9205 157.584 24.4773 159.573 24.4773C161.391 24.4773 162.976 24.875 164.328 25.6705C165.692 26.4545 166.749 27.5852 167.499 29.0625C168.26 30.5284 168.635 32.2841 168.624 34.3295V51H161.363V35.625C161.374 34.0114 160.965 32.7557 160.135 31.858C159.317 30.9602 158.169 30.5114 156.692 30.5114C155.703 30.5114 154.828 30.7216 154.067 31.142C153.317 31.5625 152.726 32.1761 152.294 32.983C151.874 33.7784 151.658 34.7386 151.647 35.8636Z" fill="white"/>
<path d="M110.898 93.8182L110.898 57.8182H118.057V62.2159H118.381C118.699 61.5114 119.159 60.7955 119.761 60.0682C120.375 59.3295 121.17 58.7159 122.148 58.2273C123.136 57.7273 124.364 57.4773 125.83 57.4773C127.739 57.4773 129.5 57.9773 131.114 58.9773C132.727 59.9659 134.017 61.4602 134.983 63.4602C135.949 65.4489 136.432 67.9432 136.432 70.9432C136.432 73.8636 135.96 76.3295 135.017 78.3409C134.085 80.3409 132.813 81.858 131.199 82.892C129.597 83.9148 127.801 84.4261 125.812 84.4261C124.403 84.4261 123.205 84.1932 122.216 83.7273C121.239 83.2614 120.438 82.6761 119.812 81.9716C119.188 81.2557 118.71 80.5341 118.381 79.8068H118.159L118.159 93.8182H110.898ZM118.006 70.9091C118.006 72.4659 118.222 73.8239 118.653 74.983C119.085 76.142 119.71 77.0455 120.528 77.6932C121.347 78.3295 122.341 78.6477 123.511 78.6477C124.693 78.6477 125.693 78.3239 126.511 77.6761C127.33 77.017 127.949 76.108 128.369 74.9489C128.801 73.7784 129.017 72.4318 129.017 70.9091C129.017 69.3977 128.807 68.0682 128.386 66.9205C127.966 65.7727 127.347 64.875 126.528 64.2273C125.71 63.5795 124.705 63.2557 123.511 63.2557C122.33 63.2557 121.33 63.5682 120.511 64.1932C119.705 64.8182 119.085 65.7045 118.653 66.8523C118.222 68 118.006 69.3523 118.006 70.9091ZM144.899 84.4943C143.228 84.4943 141.74 84.2045 140.433 83.625C139.126 83.0341 138.092 82.1648 137.33 81.017C136.58 79.858 136.205 78.4148 136.205 76.6875C136.205 75.233 136.472 74.0114 137.007 73.0227C137.541 72.0341 138.268 71.2386 139.188 70.6364C140.109 70.0341 141.154 69.5795 142.325 69.2727C143.507 68.9659 144.745 68.75 146.041 68.625C147.563 68.4659 148.791 68.3182 149.722 68.1818C150.654 68.0341 151.33 67.8182 151.751 67.5341C152.171 67.25 152.382 66.8295 152.382 66.2727V66.1705C152.382 65.0909 152.041 64.2557 151.359 63.6648C150.688 63.0739 149.734 62.7784 148.495 62.7784C147.188 62.7784 146.149 63.0682 145.376 63.6477C144.603 64.2159 144.092 64.9318 143.842 65.7955L137.126 65.25C137.467 63.6591 138.137 62.2841 139.137 61.125C140.137 59.9545 141.427 59.0568 143.007 58.4318C144.598 57.7955 146.438 57.4773 148.529 57.4773C149.984 57.4773 151.376 57.6477 152.705 57.9886C154.046 58.3295 155.234 58.858 156.268 59.5739C157.313 60.2898 158.137 61.2102 158.74 62.3352C159.342 63.4489 159.643 64.7841 159.643 66.3409V84H152.757V80.3693H152.552C152.132 81.1875 151.569 81.9091 150.865 82.5341C150.16 83.1477 149.313 83.6307 148.325 83.983C147.336 84.3239 146.194 84.4943 144.899 84.4943ZM146.978 79.483C148.046 79.483 148.99 79.2727 149.808 78.8523C150.626 78.4205 151.268 77.8409 151.734 77.1136C152.2 76.3864 152.433 75.5625 152.433 74.642V71.8636C152.205 72.0114 151.893 72.1477 151.495 72.2727C151.109 72.3864 150.671 72.4943 150.183 72.5966C149.694 72.6875 149.205 72.7727 148.717 72.8523C148.228 72.9205 147.785 72.983 147.387 73.0398C146.535 73.1648 145.791 73.3636 145.154 73.6364C144.518 73.9091 144.024 74.2784 143.671 74.7443C143.319 75.1989 143.143 75.767 143.143 76.4489C143.143 77.4375 143.501 78.1932 144.217 78.7159C144.944 79.2273 145.865 79.483 146.978 79.483ZM168.698 49.0909V84H161.436V49.0909L168.698 49.0909Z" fill="white"/>
</svg>
